<svg width="152" height="152" viewBox="0 0 152 152" fill="none" xmlns="http://www.w3.org/2000/svg">
<g filter="url(#filter0_d)">
<path d="M75.7033 129.407C109.229 129.407 136.407 102.229 136.407 68.7033C136.407 35.1778 109.229 8 75.7033 8C42.1778 8 15 35.1778 15 68.7033C15 102.229 42.1778 129.407 75.7033 129.407Z" fill="url(#paint0_linear)"/>
</g>
<path d="M77.6824 56.7587C77.7066 56.7314 77.7275 56.7043 77.7561 56.6784C78.0723 56.3945 78.0808 56.4783 77.7347 56.1593C77.4782 55.9239 77.167 55.7398 76.8851 55.5362C76.1392 54.9971 75.6482 54.275 75.3163 53.4189C74.5716 51.4968 76.766 50.1689 77.8672 49.0313C78.6627 48.2083 79.9153 49.4637 79.1206 50.285C78.5065 50.9206 77.7156 51.436 77.1812 52.1426C76.5827 52.9337 77.4947 53.8065 78.1196 54.2469C79.0857 54.9275 79.9208 55.8316 79.7278 56.8011C84.0635 57.2061 88.0723 59.5824 88.0723 63.7716V75.5307C88.0723 80.7253 83.8464 84.9513 78.6514 84.9513C73.4567 84.9513 69.2305 80.7253 69.2305 75.5307V63.7706C69.2302 59.1972 73.4853 56.9823 77.6824 56.7587ZM86.2986 63.7706C86.2986 60.6611 82.9232 58.8607 79.4271 58.5617V69.4072C82.6163 69.2466 85.2055 68.5202 86.2986 68.1655V63.7706ZM71.0036 75.5298C71.0036 79.7475 74.4345 83.1777 78.6512 83.1777C82.8677 83.1777 86.2986 79.7475 86.2986 75.5298V70.0298C84.7151 70.5085 81.7342 71.2344 78.2109 71.2344C75.9544 71.2344 73.4767 70.9325 71.0036 70.0815L71.0036 75.5298ZM71.0036 68.1953C73.2463 69.053 75.5366 69.3882 77.6538 69.4337V58.5355C74.2342 58.7405 71.0036 60.3807 71.0036 63.7713V68.1953ZM71.6035 67.524C71.6035 67.524 75.655 68.6584 77.0329 68.4152V59.4199C73.3656 60.1089 71.0056 61.2179 71.6035 67.524Z" fill="white"/>
<path d="M62.8166 50.6174C62.5659 50.7506 62.4704 51.0622 62.6035 51.313L64.0509 54.039C64.1841 54.2898 64.4957 54.3853 64.7465 54.2521C64.9973 54.1189 65.0928 53.8073 64.9596 53.5565L63.5122 50.8305C63.379 50.5798 63.0674 50.4843 62.8166 50.6174Z" fill="white"/>
<path d="M62.5573 58.9089L59.8313 60.3563C59.5805 60.4895 59.485 60.8011 59.6182 61.0519C59.7514 61.3027 60.063 61.3982 60.3138 61.265L63.0398 59.8176C63.2905 59.6845 63.386 59.3728 63.2529 59.1221C63.1197 58.8713 62.8081 58.7758 62.5573 58.9089Z" fill="white"/>
<path d="M72.5524 53.6013L69.8264 55.0487C69.5756 55.1818 69.4801 55.4935 69.6133 55.7443C69.7465 55.9951 70.0581 56.0905 70.3089 55.9574L73.0349 54.51C73.2857 54.3768 73.3811 54.0652 73.248 53.8144C73.1148 53.5636 72.8032 53.4681 72.5524 53.6013Z" fill="white"/>
<path d="M62.6509 55.7352L59.6994 54.8317C59.4281 54.7486 59.1401 54.9015 59.057 55.1728C58.9739 55.444 59.1268 55.7321 59.3981 55.8152L62.3495 56.7187C62.4854 56.7595 62.6253 56.7424 62.7416 56.6806C62.858 56.6188 62.9511 56.5135 62.992 56.3776C63.0751 56.1063 62.9221 55.8183 62.6509 55.7352Z" fill="white"/>
<path d="M65.3795 60.8772C65.1083 60.794 64.8202 60.947 64.7371 61.2183L63.8322 64.1693C63.7491 64.4406 63.9021 64.7286 64.1733 64.8117C64.3092 64.8526 64.4491 64.8354 64.5654 64.7736C64.6818 64.7119 64.7744 64.6056 64.8158 64.4706L65.7206 61.5196C65.8037 61.2483 65.6508 60.9603 65.3795 60.8772Z" fill="white"/>
<path d="M68.6942 50.055C68.4225 49.971 68.1344 50.124 68.0509 50.3966L67.1461 53.3477C67.0629 53.6189 67.2159 53.907 67.4872 53.9901C67.623 54.0309 67.7629 54.0137 67.8793 53.952C67.9956 53.8902 68.0887 53.7849 68.1305 53.6485L69.0354 50.6975C69.1185 50.4262 68.966 50.1391 68.6942 50.055Z" fill="white"/>
<defs>
<filter id="filter0_d" x="0" y="0" width="151.407" height="151.407" filterUnits="userSpaceOnUse" color-interpolation-filters="sRGB">
<feFlood flood-opacity="0" result="BackgroundImageFix"/>
<feColorMatrix in="SourceAlpha" type="matrix" values="0 0 0 0 0 0 0 0 0 0 0 0 0 0 0 0 0 0 127 0"/>
<feOffset dy="7"/>
<feGaussianBlur stdDeviation="7.5"/>
<feColorMatrix type="matrix" values="0 0 0 0 0 0 0 0 0 0 0 0 0 0 0 0 0 0 0.17 0"/>
<feBlend mode="normal" in2="BackgroundImageFix" result="effect1_dropShadow"/>
<feBlend mode="normal" in="SourceGraphic" in2="effect1_dropShadow" result="shape"/>
</filter>
<linearGradient id="paint0_linear" x1="124.38" y1="-10.8982" x2="-10.1976" y2="129.407" gradientUnits="userSpaceOnUse">
<stop stop-color="#2A2A2A"/>
<stop offset="1" stop-color="#292929"/>
</linearGradient>
</defs>
</svg>
