<svg width="101" height="101" viewBox="0 0 101 101" fill="none" xmlns="http://www.w3.org/2000/svg">
<path fill-rule="evenodd" clip-rule="evenodd" d="M6.89418 33.6601L5.92406 34.6724C6.16466 34.9043 6.33585 35.197 6.4189 35.5182C6.50481 35.8429 6.49575 36.1849 6.39283 36.5049C6.31407 36.7812 6.17633 37.0379 5.98884 37.2577C5.80135 37.4776 5.56838 37.6556 5.30548 37.7798C4.76179 38.037 4.13668 38.0715 3.56713 37.8759C2.98299 37.7134 2.48721 37.3315 2.18683 36.8124C2.04584 36.5612 1.9602 36.2835 1.93552 35.9976C1.91084 35.7117 1.94762 35.4239 2.04353 35.1529C2.14776 34.8314 2.34453 34.5465 2.60997 34.3328C2.86411 34.1192 3.1724 33.9776 3.50196 33.9228L3.28713 32.5452C2.69896 32.6424 2.15146 32.9036 1.70948 33.2976C1.26751 33.6917 0.949621 34.202 0.793498 34.7684C0.632598 35.2184 0.564078 35.6955 0.592021 36.1717C0.619963 36.6479 0.74381 37.1139 0.95627 37.5427C1.4092 38.3851 2.181 39.018 3.10465 39.3046C4.0283 39.5912 5.02946 39.5084 5.89148 39.0741C6.31624 38.8433 6.69028 38.5318 6.99202 38.1579C7.29375 37.784 7.51725 37.355 7.64946 36.8956C7.84467 36.3409 7.87736 35.7434 7.7438 35.1712C7.61025 34.5991 7.31581 34.0753 6.89418 33.6601ZM9.58317 28.8612L8.30055 31.4625L3.21552 29.0407L2.57747 30.3541L8.82789 33.3269L10.7551 29.4187L9.58317 28.8612ZM6.14541 23.7549L5.37709 25.0042L11.3215 28.5473L12.0898 27.298L6.14541 23.7549ZM15.3648 20.2632L14.1017 20.8846C14.2436 21.1845 14.2999 21.5167 14.2644 21.8457C14.2338 22.1809 14.1074 22.5007 13.8999 22.7682C13.7267 22.9978 13.5072 23.1897 13.2551 23.332C13.003 23.4742 12.7238 23.5637 12.4349 23.5947C11.8331 23.6316 11.2383 23.4517 10.7614 23.0886C10.2846 22.7254 9.95837 22.204 9.84362 21.6215C9.7977 21.3384 9.81397 21.0489 9.89147 20.7726C9.96897 20.4963 10.1059 20.2396 10.2928 20.0198C10.4978 19.7487 10.7816 19.5453 11.1067 19.4366C11.4218 19.3269 11.7603 19.2983 12.0898 19.3534L12.3763 17.9887C11.7897 17.8795 11.1837 17.938 10.6299 18.1571C10.0761 18.3763 9.59763 18.747 9.25111 19.2253C8.63038 19.9696 8.3353 20.9259 8.43073 21.8841C8.56223 22.8283 9.06489 23.6841 9.83067 24.2675C10.5964 24.8509 11.5642 25.1154 12.5261 25.0042C13.0051 24.932 13.4647 24.7668 13.8783 24.5182C14.2918 24.2697 14.6511 23.9427 14.9351 23.5563C15.3136 23.1024 15.5546 22.5529 15.6306 21.9705C15.7066 21.3881 15.6145 20.7964 15.3648 20.2632ZM16.9275 15.9192L16.6995 11.7226L15.3713 12.9529L15.7164 16.8354L13.5874 14.6186L12.5065 15.6117L17.279 20.5899L18.3533 19.5904L16.8883 18.0592L16.8363 17.2327L20.2805 17.8028L21.6022 16.5727L16.9275 15.9192ZM35.0407 3.51543L36.9678 2.90664L36.5707 1.68938L31.2904 3.34243L31.6875 4.5661L33.6213 3.95747L35.3336 9.24963L36.753 8.80758L35.0407 3.51543ZM45.0999 6.2448C45.6437 5.46637 45.8649 4.51294 45.7185 3.5794C45.5721 2.64587 45.0691 1.80258 44.3121 1.22169C43.5088 0.696228 42.5347 0.485664 41.5816 0.631512C40.6284 0.77736 39.7653 1.26905 39.162 2.00973C38.6187 2.78716 38.3976 3.73953 38.5441 4.672C38.6905 5.60447 39.1934 6.44666 39.9499 7.02643C40.3384 7.30287 40.7802 7.49835 41.2482 7.6008C41.7161 7.70326 42.2004 7.71051 42.6714 7.62223C43.1497 7.56586 43.6115 7.41475 44.0289 7.178C44.4463 6.94126 44.8106 6.62385 45.0999 6.2448ZM40.0475 4.44441C39.9331 3.8653 40.0472 3.26498 40.3666 2.76571C40.5317 2.53712 40.7416 2.34343 40.9841 2.19603C41.2265 2.04862 41.4965 1.95059 41.7781 1.90759C42.0597 1.86459 42.3473 1.87743 42.6237 1.9456C42.9001 2.01377 43.1598 2.13582 43.3876 2.30443C43.8309 2.69723 44.123 3.22857 44.2143 3.80872C44.3056 4.38887 44.1907 4.98225 43.8889 5.48867C43.7295 5.72428 43.5201 5.92311 43.275 6.07133C43.03 6.21955 42.7552 6.31369 42.4696 6.34726C42.1894 6.40096 41.9005 6.39323 41.6237 6.32457C41.3469 6.25592 41.0887 6.12793 40.8679 5.94995C40.4093 5.56936 40.1158 5.03086 40.0475 4.44441ZM65.0623 9.22397C65.3436 9.10661 65.5949 8.92903 65.7976 8.70403C66.0004 8.47903 66.1495 8.21226 66.2343 7.92334C66.3495 7.59838 66.3653 7.24735 66.2796 6.91365C66.194 6.57995 66.0107 6.27829 65.7525 6.04615C65.4991 5.82064 65.2315 5.61095 64.9516 5.41828C64.6841 5.22976 64.4059 5.05645 64.1182 4.89928C63.8832 4.78106 63.6697 4.62518 63.4866 4.43799C63.4188 4.37809 63.3689 4.30095 63.3425 4.21509C63.3161 4.12923 63.3142 4.03793 63.3369 3.95106C63.3642 3.85647 63.4156 3.77031 63.4862 3.70079C63.5569 3.63126 63.6444 3.5806 63.7405 3.55375C63.9887 3.49056 64.2508 3.50631 64.4893 3.59864C65.2081 3.80224 65.8163 4.2765 66.1821 4.91851L67.2955 4.14971C66.7912 3.30407 65.9711 2.68554 65.0102 2.42612C64.3644 2.18631 63.6522 2.18403 63.0048 2.41971C62.733 2.51917 62.4882 2.67912 62.2894 2.88693C62.0907 3.09474 61.9433 3.34487 61.8589 3.61788C61.7365 3.96028 61.7229 4.33118 61.8199 4.68138C61.9126 4.99192 62.0906 5.27127 62.3343 5.48867C62.5911 5.71357 62.863 5.92118 63.1481 6.11012C63.4187 6.29542 63.699 6.46654 63.988 6.62271C64.2261 6.74128 64.4385 6.90451 64.6131 7.10323C64.682 7.17048 64.731 7.2549 64.7551 7.3474C64.7792 7.43991 64.7773 7.53709 64.7498 7.62865C64.7143 7.73168 64.6525 7.824 64.5705 7.89691C64.4884 7.96981 64.3888 8.0208 64.281 8.04504C63.9763 8.11935 63.6556 8.09932 63.3629 7.98747C62.9672 7.87143 62.6009 7.67448 62.2878 7.4095C61.9748 7.14452 61.7221 6.8174 61.5464 6.44971L60.4396 7.26341C60.6942 7.73183 61.0441 8.14374 61.4675 8.47331C61.891 8.80289 62.3788 9.04307 62.9007 9.17908C63.593 9.44613 64.3592 9.46207 65.0623 9.22397ZM70.87 8.33973L74.7896 6.6676L73.1553 5.87315L69.5743 7.54527L70.9481 4.80323L69.6199 4.15612L66.5533 10.2939L67.875 10.9346L68.8191 9.05097L69.5938 8.7178L70.2514 12.0879L71.8857 12.8823L70.87 8.33973ZM77.3874 8.33973L76.1438 7.5581L72.4196 13.3308L73.6696 14.1124L77.3874 8.33973ZM77.5631 13.8434L78.9499 14.9261C79.1851 15.1314 79.4611 15.2864 79.7604 15.3813C80.0596 15.4761 80.3756 15.5088 80.6884 15.4772C81.2729 15.389 81.8023 15.0876 82.1714 14.633C82.5406 14.1783 82.7224 13.6037 82.6807 13.0233C82.6415 12.7153 82.5372 12.419 82.3746 12.1531C82.212 11.8872 81.9947 11.6576 81.7366 11.4792L79.1974 9.4866L74.8677 14.8365L76.0266 15.7398L77.5631 13.8434ZM78.377 12.8374L79.5424 11.3959L80.773 12.3569C80.9892 12.5138 81.1379 12.7446 81.1897 13.004C81.2105 13.1289 81.2032 13.2567 81.1683 13.3785C81.1335 13.5003 81.0718 13.613 80.9878 13.7088C80.9124 13.8107 80.8149 13.8946 80.7022 13.9544C80.5895 14.0143 80.4646 14.0486 80.3368 14.0548C80.0706 14.0633 79.8108 13.9742 79.6075 13.8049L78.377 12.8374ZM94.4979 29.6045L95.3834 31.3921L96.5553 30.8282L94.1268 25.927L92.9548 26.4907L93.8468 28.2847L88.7684 30.7258L89.426 32.0392L94.4979 29.6045ZM93.2022 39.7659C94.0638 40.1839 95.0552 40.2613 95.973 39.9825C96.8908 39.7037 97.6653 39.0899 98.1375 38.2668C98.3572 37.8454 98.4877 37.3846 98.5212 36.9122C98.5548 36.4398 98.4907 35.9655 98.3328 35.5182C98.2072 35.0626 97.9882 34.6372 97.6892 34.2681C97.3902 33.8989 97.0177 33.5939 96.5945 33.3718C95.7355 32.9548 94.7469 32.8771 93.8315 33.1547C92.9162 33.4323 92.1436 34.0442 91.6722 34.8646C91.2546 35.7213 91.1801 36.7014 91.4636 37.6097C91.7472 38.5179 92.3679 39.2877 93.2022 39.7659ZM94.2765 34.5828C94.8442 34.3887 95.4655 34.4138 96.015 34.6532C96.2691 34.7806 96.4947 34.9571 96.6782 35.172C96.8617 35.3869 96.9995 35.636 97.0833 35.9044C97.1671 36.1727 97.1952 36.4548 97.1661 36.734C97.1369 37.0133 97.051 37.2839 96.9135 37.5299C96.5816 38.0161 96.0901 38.3756 95.5213 38.5482C94.9525 38.7208 94.3408 38.696 93.7882 38.4781C93.5282 38.3578 93.2979 38.1832 93.1135 37.9663C92.929 37.7494 92.7949 37.4955 92.7204 37.2224C92.6249 36.9567 92.5905 36.6735 92.6198 36.3932C92.6491 36.1128 92.7413 35.8424 92.8897 35.6014C93.2039 35.1009 93.6996 34.7368 94.2765 34.5828ZM98.4109 59.0702L98.0854 61.0307L99.3681 61.242L100.26 55.8603L98.9774 55.6488L98.6518 57.6222L93.0786 56.7251L92.8377 58.1731L98.4109 59.0702ZM96.9395 69.0713L97.4083 67.6747L94.8169 66.8353L95.8457 63.7663L98.437 64.6121L98.8992 63.2283L92.3037 61.0819L91.8415 62.4659L94.6086 63.3692L93.5799 66.4317L90.8063 65.5347L90.344 66.9251L96.9395 69.0713ZM88.6511 73.0564L90.2268 70.0516L91.6267 70.7564L90.0836 73.7035L91.2425 74.2867L92.7791 71.3458L94.0877 72.0058L92.5121 75.017L93.6711 75.6001L95.9238 71.3009L89.745 68.168L87.4922 72.4735L88.6511 73.0564ZM77.3027 92.585L78.4942 91.72L75.8964 88.2666L81.079 89.8364L82.3031 88.9457L78.1621 83.4487L76.9772 84.3135L79.6727 87.9015L74.3142 86.2548L73.1683 87.0942L77.3027 92.585ZM68.2006 91.1561L71.2476 89.5864L71.9768 90.9576L68.9949 92.4888L69.6003 93.6293L72.5824 92.0917L73.266 93.373L70.2189 94.9427L70.8244 96.0768L75.1802 93.8279L71.9573 87.7734L67.6015 90.0158L68.2006 91.1561ZM64.1052 95.0388L62.9788 98.9407L64.6586 98.3639L65.3683 95.6474L67.6536 97.3453L69.3139 96.7814L65.9738 94.3917L67.1913 90.2656L65.5245 90.8358L64.7041 93.7638L62.2301 91.957L60.5567 92.5273L64.1052 95.0388ZM57.8677 98.6395L55.882 98.9982L56.1163 100.261L61.5659 99.261L61.3316 97.9989L59.3327 98.3703L58.2975 92.9053L56.8325 93.1744L57.8677 98.6395ZM35.3141 92.1236C35.0984 92.2454 34.9102 92.4095 34.7613 92.6056C34.6124 92.8018 34.5058 93.0258 34.4481 93.264C34.3362 93.6542 34.3638 94.0704 34.5263 94.443C34.6675 94.7924 34.9405 95.0747 35.2881 95.231C34.9428 95.2068 34.6003 95.307 34.3245 95.5129C34.0197 95.7417 33.8056 96.068 33.7189 96.4354C33.6532 96.6564 33.6349 96.8885 33.6651 97.1168C33.6954 97.3451 33.7736 97.5647 33.8947 97.7617C34.0403 97.9837 34.2292 98.1749 34.4505 98.3245C34.6718 98.4741 34.9211 98.5791 35.1839 98.6331L38.7128 99.5749L40.5294 92.9757L36.8897 92.0019C36.6321 91.918 36.36 91.8857 36.0895 91.9066C35.8189 91.9275 35.5554 92.0012 35.3141 92.1236ZM38.0096 96.5509L37.6189 97.986L35.8285 97.5055C35.7233 97.4831 35.6238 97.4404 35.5355 97.3799C35.4472 97.3194 35.372 97.2423 35.3141 97.1531C35.262 97.0672 35.2287 96.9715 35.2164 96.8722C35.2041 96.7729 35.2129 96.6722 35.2425 96.5765C35.2645 96.4803 35.3074 96.3899 35.368 96.3114C35.4287 96.2329 35.5058 96.1681 35.5941 96.1215C35.6907 96.0721 35.7966 96.0427 35.9051 96.035C36.0137 96.0273 36.1228 96.0416 36.2256 96.0768L38.0096 96.5509ZM38.7714 93.8087L38.3482 95.3463L36.5056 94.8529C36.2701 94.8013 36.0644 94.6611 35.9326 94.4622C35.8783 94.3713 35.8433 94.2704 35.8299 94.1658C35.8164 94.0611 35.8249 93.9549 35.8545 93.8536C35.8782 93.748 35.9248 93.6486 35.9911 93.5623C36.0574 93.4761 36.1418 93.405 36.2386 93.3538C36.4565 93.2583 36.7028 93.2469 36.9288 93.3217L38.7714 93.8087ZM29.3176 90.5027L32.0131 91.6495L29.7799 96.7495L31.1407 97.3261L33.8882 91.0472L29.832 89.3302L29.3176 90.5027ZM23.6141 86.7161C22.6858 86.9594 21.8874 87.5429 21.3825 88.3471C20.8777 89.1513 20.7047 90.1151 20.8991 91.0408C21.1607 91.9547 21.7617 92.7386 22.5829 93.237C23.4041 93.7354 24.3856 93.9119 25.3329 93.7317C26.2597 93.4889 27.0568 92.9062 27.5606 92.1031C28.0643 91.3 28.2364 90.3375 28.0415 89.4134C27.7781 88.5016 27.178 87.7196 26.3589 87.2206C25.5399 86.7216 24.5609 86.5417 23.6141 86.7161ZM26.264 91.3163C25.9685 91.8304 25.4837 92.2135 24.9097 92.3863C24.6334 92.4541 24.3461 92.4666 24.0648 92.4233C23.7834 92.38 23.5138 92.2817 23.2717 92.1342C23.0295 91.9867 22.8198 91.793 22.655 91.5645C22.4902 91.336 22.3735 91.0774 22.3119 90.8038C22.2334 90.2227 22.3617 89.6326 22.675 89.1339C22.9883 88.6352 23.4673 88.2587 24.0308 88.0681C24.3075 87.9997 24.5954 87.9866 24.8774 88.0296C25.1593 88.0726 25.4297 88.1708 25.6725 88.3183C25.9152 88.4659 26.1255 88.6597 26.2908 88.8885C26.4562 89.1173 26.5732 89.3765 26.6351 89.6506C26.728 90.232 26.5956 90.8264 26.264 91.3163ZM16.6344 81.8341L17.1748 83.1155C17.4894 82.9949 17.8312 82.9594 18.1645 83.0129C18.5007 83.0669 18.8144 83.2136 19.0695 83.4358C19.2943 83.6195 19.4768 83.8482 19.6048 84.1067C19.7327 84.3652 19.8033 84.6475 19.8117 84.935C19.8062 85.5263 19.5837 86.0956 19.1853 86.5383C18.7869 86.9809 18.2394 87.2671 17.6436 87.344C17.3529 87.3675 17.0603 87.3312 16.7846 87.2375C16.5088 87.1437 16.2559 86.9946 16.0419 86.7995C15.7855 86.5774 15.6019 86.2852 15.5146 85.9601C15.4184 85.6435 15.4094 85.3074 15.4885 84.9863L14.1212 84.6146C13.9742 85.1844 13.9954 85.7836 14.1822 86.342C14.369 86.9003 14.7138 87.3946 15.176 87.767C15.5296 88.0932 15.945 88.3475 16.3986 88.5157C16.8522 88.6839 17.335 88.7625 17.8194 88.7471C18.7845 88.6797 19.6842 88.243 20.3257 87.5303C20.9672 86.8176 21.2992 85.8858 21.2506 84.935C21.1628 83.9749 20.6922 83.0881 19.9419 82.4684C19.5072 82.067 18.9662 81.7944 18.381 81.6822C17.7959 81.57 17.1905 81.6227 16.6344 81.8341ZM12.3307 80.0081L8.05957 79.9568L9.21853 81.3408L13.1837 81.2638L10.7877 83.2051L11.7252 84.3263L17.0837 79.976L16.1461 78.8548L14.4988 80.1939L13.6525 80.1875L14.4598 76.8431L13.3009 75.4591L12.3307 80.0081Z" fill="white"/>
<mask id="mask0" mask-type="alpha" maskUnits="userSpaceOnUse" x="0" y="0" width="101" height="101">
<path fill-rule="evenodd" clip-rule="evenodd" d="M6.89418 33.6597L5.92406 34.6721C6.16466 34.904 6.33585 35.1966 6.4189 35.5178C6.50481 35.8426 6.49575 36.1846 6.39283 36.5045C6.31407 36.7809 6.17633 37.0375 5.98884 37.2574C5.80135 37.4772 5.56838 37.6552 5.30548 37.7795C4.76179 38.0367 4.13668 38.0712 3.56713 37.8755C2.98299 37.7131 2.48721 37.3311 2.18683 36.812C2.04584 36.5609 1.9602 36.2832 1.93552 35.9972C1.91084 35.7113 1.94762 35.4236 2.04353 35.1526C2.14776 34.8311 2.34453 34.5462 2.60997 34.3325C2.86411 34.1189 3.1724 33.9772 3.50196 33.9225L3.28713 32.5449C2.69896 32.6421 2.15146 32.9032 1.70948 33.2973C1.26751 33.6913 0.949621 34.2017 0.793498 34.7681C0.632598 35.2181 0.564078 35.6951 0.592021 36.1713C0.619963 36.6476 0.74381 37.1136 0.95627 37.5424C1.4092 38.3847 2.181 39.0177 3.10465 39.3043C4.0283 39.5909 5.02946 39.5081 5.89148 39.0737C6.31624 38.8429 6.69028 38.5315 6.99202 38.1576C7.29375 37.7837 7.51725 37.3546 7.64946 36.8952C7.84467 36.3405 7.87736 35.743 7.7438 35.1709C7.61025 34.5987 7.31581 34.075 6.89418 33.6597ZM9.58317 28.8609L8.30055 31.4622L3.21552 29.0403L2.57747 30.3538L8.82789 33.3265L10.7551 29.4184L9.58317 28.8609ZM6.14541 23.7546L5.37709 25.0039L11.3215 28.547L12.0898 27.2976L6.14541 23.7546ZM15.3648 20.2628L14.1017 20.8843C14.2436 21.1841 14.2999 21.5164 14.2644 21.8453C14.2338 22.1805 14.1074 22.5003 13.8999 22.7679C13.7267 22.9975 13.5072 23.1894 13.2551 23.3316C13.003 23.4738 12.7238 23.5633 12.4349 23.5944C11.8331 23.6312 11.2383 23.4513 10.7614 23.0882C10.2846 22.7251 9.95837 22.2036 9.84362 21.6212C9.7977 21.3381 9.81397 21.0486 9.89147 20.7723C9.96897 20.4959 10.1059 20.2392 10.2928 20.0194C10.4978 19.7484 10.7816 19.5449 11.1067 19.4363C11.4218 19.3265 11.7603 19.2979 12.0898 19.3531L12.3763 17.9883C11.7897 17.8792 11.1837 17.9376 10.6299 18.1568C10.0761 18.3759 9.59763 18.7467 9.25111 19.225C8.63038 19.9692 8.3353 20.9255 8.43073 21.8838C8.56223 22.828 9.06489 23.6837 9.83067 24.2672C10.5964 24.8506 11.5642 25.1151 12.5261 25.0039C13.0051 24.9317 13.4647 24.7665 13.8783 24.5179C14.2918 24.2693 14.6511 23.9423 14.9351 23.5559C15.3136 23.102 15.5546 22.5525 15.6306 21.9701C15.7066 21.3877 15.6145 20.7961 15.3648 20.2628ZM16.9275 15.9189L16.6995 11.7223L15.3713 12.9525L15.7164 16.835L13.5874 14.6182L12.5065 15.6113L17.279 20.5896L18.3533 19.59L16.8883 18.0588L16.8363 17.2323L20.2805 17.8025L21.6022 16.5724L16.9275 15.9189ZM35.0407 3.51508L36.9678 2.90629L36.5707 1.68903L31.2904 3.34208L31.6875 4.56575L33.6213 3.95712L35.3336 9.24928L36.753 8.80723L35.0407 3.51508ZM45.0999 6.24445C45.6437 5.46601 45.8649 4.51259 45.7185 3.57905C45.5721 2.64552 45.0691 1.80223 44.3121 1.22134C43.5088 0.695877 42.5347 0.485313 41.5816 0.631161C40.6284 0.777009 39.7653 1.26869 39.162 2.00938C38.6187 2.78681 38.3976 3.73918 38.5441 4.67165C38.6905 5.60412 39.1934 6.44631 39.9499 7.02608C40.3384 7.30252 40.7802 7.49799 41.2482 7.60045C41.7161 7.70291 42.2004 7.71016 42.6714 7.62188C43.1497 7.56551 43.6115 7.41439 44.0289 7.17765C44.4463 6.94091 44.8106 6.6235 45.0999 6.24445ZM40.0475 4.44406C39.9331 3.86495 40.0472 3.26463 40.3666 2.76536C40.5317 2.53677 40.7416 2.34308 40.9841 2.19568C41.2265 2.04827 41.4965 1.95024 41.7781 1.90724C42.0597 1.86424 42.3473 1.87708 42.6237 1.94525C42.9001 2.01342 43.1598 2.13546 43.3876 2.30408C43.8309 2.69688 44.123 3.22822 44.2143 3.80837C44.3056 4.38852 44.1907 4.9819 43.8889 5.48832C43.7295 5.72393 43.5201 5.92276 43.275 6.07098C43.03 6.2192 42.7552 6.31334 42.4696 6.3469C42.1894 6.4006 41.9005 6.39288 41.6237 6.32422C41.3469 6.25556 41.0887 6.12758 40.8679 5.9496C40.4093 5.56901 40.1158 5.03051 40.0475 4.44406ZM65.0623 9.22362C65.3436 9.10626 65.5949 8.92868 65.7976 8.70368C66.0004 8.47868 66.1495 8.21191 66.2343 7.92299C66.3495 7.59803 66.3653 7.247 66.2796 6.9133C66.194 6.5796 66.0107 6.27794 65.7525 6.0458C65.4991 5.82029 65.2315 5.6106 64.9516 5.41793C64.6841 5.22941 64.4059 5.0561 64.1182 4.89892C63.8832 4.78071 63.6697 4.62483 63.4866 4.43764C63.4188 4.37774 63.3689 4.3006 63.3425 4.21474C63.3161 4.12888 63.3142 4.03758 63.3369 3.95071C63.3642 3.85612 63.4156 3.76996 63.4862 3.70043C63.5569 3.63091 63.6444 3.58025 63.7405 3.5534C63.9887 3.49021 64.2508 3.50596 64.4893 3.59829C65.2081 3.80189 65.8163 4.27615 66.1821 4.91816L67.2955 4.14936C66.7912 3.30372 65.9711 2.68519 65.0102 2.42577C64.3644 2.18596 63.6522 2.18368 63.0048 2.41936C62.733 2.51882 62.4882 2.67877 62.2894 2.88658C62.0907 3.09439 61.9433 3.34452 61.8589 3.61753C61.7365 3.95993 61.7229 4.33083 61.8199 4.68103C61.9126 4.99157 62.0906 5.27092 62.3343 5.48831C62.5911 5.71322 62.863 5.92082 63.1481 6.10977C63.4187 6.29507 63.699 6.46619 63.988 6.62236C64.2261 6.74093 64.4385 6.90416 64.6131 7.10288C64.682 7.17013 64.731 7.25455 64.7551 7.34705C64.7792 7.43956 64.7773 7.53674 64.7498 7.6283C64.7143 7.73133 64.6525 7.82365 64.5705 7.89656C64.4884 7.96946 64.3888 8.02045 64.281 8.04469C63.9763 8.119 63.6556 8.09897 63.3629 7.98712C62.9672 7.87108 62.6009 7.67413 62.2878 7.40915C61.9748 7.14417 61.7221 6.81704 61.5464 6.44936L60.4396 7.26306C60.6942 7.73148 61.0441 8.14339 61.4675 8.47296C61.891 8.80254 62.3788 9.04272 62.9007 9.17873C63.593 9.44578 64.3592 9.46172 65.0623 9.22362ZM70.87 8.33938L74.7896 6.66725L73.1553 5.87279L69.5743 7.54492L70.9481 4.80288L69.6199 4.15577L66.5533 10.2935L67.875 10.9342L68.8191 9.05062L69.5938 8.71745L70.2514 12.0875L71.8857 12.882L70.87 8.33938ZM77.3874 8.33938L76.1438 7.55775L72.4196 13.3304L73.6696 14.1121L77.3874 8.33938ZM77.5631 13.843L78.9499 14.9258C79.1851 15.1311 79.4611 15.2861 79.7604 15.3809C80.0596 15.4758 80.3756 15.5085 80.6884 15.4768C81.2729 15.3887 81.8023 15.0873 82.1714 14.6326C82.5406 14.178 82.7224 13.6034 82.6807 13.0229C82.6415 12.715 82.5372 12.4187 82.3746 12.1527C82.212 11.8868 81.9947 11.6573 81.7366 11.4789L79.1974 9.48625L74.8677 14.8361L76.0266 15.7395L77.5631 13.843ZM78.377 12.8371L79.5424 11.3955L80.773 12.3566C80.9892 12.5134 81.1379 12.7443 81.1897 13.0037C81.2105 13.1285 81.2032 13.2564 81.1683 13.3781C81.1335 13.4999 81.0718 13.6127 80.9878 13.7085C80.9124 13.8103 80.8149 13.8942 80.7022 13.9541C80.5895 14.0139 80.4646 14.0483 80.3368 14.0545C80.0706 14.063 79.8108 13.9738 79.6075 13.8045L78.377 12.8371ZM94.4979 29.6042L95.3834 31.3918L96.5553 30.8279L94.1268 25.9266L92.9548 26.4903L93.8468 28.2843L88.7684 30.7254L89.426 32.0389L94.4979 29.6042ZM93.2022 39.7655C94.0638 40.1835 95.0552 40.261 95.973 39.9822C96.8908 39.7034 97.6653 39.0895 98.1375 38.2664C98.3572 37.8451 98.4877 37.3842 98.5212 36.9118C98.5548 36.4394 98.4907 35.9652 98.3328 35.5178C98.2072 35.0623 97.9882 34.6368 97.6892 34.2677C97.3902 33.8986 97.0177 33.5936 96.5945 33.3714C95.7355 32.9544 94.7469 32.8767 93.8315 33.1543C92.9162 33.4319 92.1436 34.0438 91.6722 34.8643C91.2546 35.721 91.1801 36.701 91.4636 37.6093C91.7472 38.5176 92.3679 39.2873 93.2022 39.7655ZM94.2765 34.5824C94.8442 34.3884 95.4655 34.4135 96.015 34.6528C96.2691 34.7803 96.4947 34.9567 96.6782 35.1717C96.8617 35.3866 96.9995 35.6357 97.0833 35.904C97.1671 36.1723 97.1952 36.4544 97.1661 36.7337C97.1369 37.0129 97.051 37.2836 96.9135 37.5295C96.5816 38.0158 96.0901 38.3752 95.5213 38.5478C94.9525 38.7204 94.3408 38.6956 93.7882 38.4777C93.5282 38.3574 93.2979 38.1828 93.1135 37.9659C92.929 37.7491 92.7949 37.4951 92.7204 37.222C92.6249 36.9563 92.5905 36.6732 92.6198 36.3928C92.6491 36.1125 92.7413 35.842 92.8897 35.601C93.2039 35.1006 93.6996 34.7365 94.2765 34.5824ZM98.4109 59.0698L98.0854 61.0304L99.3681 61.2417L100.26 55.8599L98.9774 55.6484L98.6518 57.6218L93.0786 56.7248L92.8377 58.1727L98.4109 59.0698ZM96.9395 69.071L97.4083 67.6743L94.8169 66.835L95.8457 63.766L98.437 64.6118L98.8992 63.2279L92.3037 61.0815L91.8415 62.4655L94.6086 63.3688L93.5799 66.4314L90.8063 65.5343L90.344 66.9247L96.9395 69.071ZM88.6511 73.0561L90.2268 70.0513L91.6267 70.7561L90.0836 73.7032L91.2425 74.2863L92.7791 71.3455L94.0877 72.0054L92.5121 75.0167L93.6711 75.5998L95.9238 71.3006L89.745 68.1677L87.4922 72.4731L88.6511 73.0561ZM77.3027 92.5846L78.4942 91.7196L75.8964 88.2662L81.079 89.836L82.3031 88.9454L78.1621 83.4483L76.9772 84.3132L79.6727 87.9011L74.3142 86.2545L73.1683 87.0938L77.3027 92.5846ZM68.2006 91.1558L71.2476 89.5861L71.9768 90.9573L68.9949 92.4885L69.6003 93.6289L72.5824 92.0913L73.266 93.3727L70.2189 94.9424L70.8244 96.0764L75.1802 93.8276L71.9573 87.773L67.6015 90.0155L68.2006 91.1558ZM64.1052 95.0384L62.9788 98.9403L64.6586 98.3636L65.3683 95.647L67.6536 97.345L69.3139 96.7811L65.9738 94.3913L67.1913 90.2653L65.5245 90.8354L64.7041 93.7634L62.2301 91.9566L60.5567 92.5269L64.1052 95.0384ZM57.8677 98.6392L55.882 98.9979L56.1163 100.26L61.5659 99.2607L61.3316 97.9985L59.3327 98.37L58.2975 92.905L56.8325 93.174L57.8677 98.6392ZM35.3141 92.1232C35.0984 92.2451 34.9102 92.4092 34.7613 92.6053C34.6124 92.8014 34.5058 93.0255 34.4481 93.2637C34.3362 93.6538 34.3638 94.0701 34.5263 94.4426C34.6675 94.7921 34.9405 95.0744 35.2881 95.2306C34.9428 95.2064 34.6003 95.3066 34.3245 95.5125C34.0197 95.7414 33.8056 96.0676 33.7189 96.4351C33.6532 96.6561 33.6349 96.8881 33.6651 97.1164C33.6954 97.3448 33.7736 97.5644 33.8947 97.7614C34.0403 97.9833 34.2292 98.1746 34.4505 98.3242C34.6718 98.4737 34.9211 98.5787 35.1839 98.6328L38.7128 99.5746L40.5294 92.9754L36.8897 92.0015C36.6321 91.9177 36.36 91.8854 36.0895 91.9063C35.8189 91.9272 35.5554 92.0008 35.3141 92.1232ZM38.0096 96.5505L37.6189 97.9857L35.8285 97.5052C35.7233 97.4827 35.6238 97.44 35.5355 97.3795C35.4472 97.3191 35.372 97.242 35.3141 97.1527C35.262 97.0668 35.2287 96.9711 35.2164 96.8718C35.2041 96.7725 35.2129 96.6719 35.2425 96.5762C35.2645 96.48 35.3074 96.3895 35.368 96.311C35.4287 96.2326 35.5058 96.1678 35.5941 96.1211C35.6907 96.0718 35.7966 96.0424 35.9051 96.0346C36.0137 96.0269 36.1228 96.0412 36.2256 96.0764L38.0096 96.5505ZM38.7714 93.8083L38.3482 95.3459L36.5056 94.8526C36.2701 94.801 36.0644 94.6608 35.9326 94.4618C35.8783 94.3709 35.8433 94.2701 35.8299 94.1654C35.8164 94.0608 35.8249 93.9546 35.8545 93.8532C35.8782 93.7476 35.9248 93.6482 35.9911 93.562C36.0574 93.4757 36.1418 93.4047 36.2386 93.3535C36.4565 93.258 36.7028 93.2465 36.9288 93.3214L38.7714 93.8083ZM29.3176 90.5024L32.0131 91.6491L29.7799 96.7492L31.1407 97.3257L33.8882 91.0469L29.832 89.3299L29.3176 90.5024ZM23.6141 86.7158C22.6858 86.9591 21.8874 87.5426 21.3825 88.3468C20.8777 89.1509 20.7047 90.1148 20.8991 91.0405C21.1607 91.9543 21.7617 92.7382 22.5829 93.2366C23.4041 93.735 24.3856 93.9115 25.3329 93.7314C26.2597 93.4885 27.0568 92.9058 27.5606 92.1027C28.0643 91.2996 28.2364 90.3371 28.0415 89.4131C27.7781 88.5013 27.178 87.7192 26.3589 87.2202C25.5399 86.7212 24.5609 86.5413 23.6141 86.7158ZM26.264 91.3159C25.9685 91.8301 25.4837 92.2131 24.9097 92.386C24.6334 92.4537 24.3461 92.4662 24.0648 92.4229C23.7834 92.3796 23.5138 92.2813 23.2717 92.1338C23.0295 91.9864 22.8198 91.7927 22.655 91.5642C22.4902 91.3357 22.3735 91.0771 22.3119 90.8035C22.2334 90.2223 22.3617 89.6322 22.675 89.1336C22.9883 88.6349 23.4673 88.2583 24.0308 88.0677C24.3075 87.9994 24.5954 87.9862 24.8774 88.0292C25.1593 88.0722 25.4297 88.1705 25.6725 88.318C25.9152 88.4655 26.1255 88.6593 26.2908 88.8881C26.4562 89.117 26.5732 89.3761 26.6351 89.6502C26.728 90.2316 26.5956 90.8261 26.264 91.3159ZM16.6344 81.8338L17.1748 83.1151C17.4894 82.9945 17.8312 82.959 18.1645 83.0125C18.5007 83.0666 18.8144 83.2133 19.0695 83.4355C19.2943 83.6192 19.4768 83.8479 19.6048 84.1064C19.7327 84.3649 19.8033 84.6472 19.8117 84.9346C19.8062 85.5259 19.5837 86.0953 19.1853 86.5379C18.7869 86.9806 18.2394 87.2667 17.6436 87.3436C17.3529 87.3672 17.0603 87.3309 16.7846 87.2371C16.5088 87.1434 16.2559 86.9943 16.0419 86.7991C15.7855 86.577 15.6019 86.2848 15.5146 85.9598C15.4184 85.6432 15.4094 85.3071 15.4885 84.9859L14.1212 84.6143C13.9742 85.184 13.9954 85.7833 14.1822 86.3416C14.369 86.8999 14.7138 87.3943 15.176 87.7666C15.5296 88.0928 15.945 88.3472 16.3986 88.5154C16.8522 88.6836 17.335 88.7622 17.8194 88.7467C18.7845 88.6794 19.6842 88.2426 20.3257 87.5299C20.9672 86.8173 21.2992 85.8855 21.2506 84.9346C21.1628 83.9745 20.6922 83.0878 19.9419 82.468C19.5072 82.0666 18.9662 81.7941 18.381 81.6819C17.7959 81.5697 17.1905 81.6224 16.6344 81.8338ZM12.3307 80.0077L8.05957 79.9564L9.21853 81.3404L13.1837 81.2634L10.7877 83.2048L11.7252 84.326L17.0837 79.9756L16.1461 78.8544L14.4988 80.1935L13.6525 80.1871L14.4598 76.8427L13.3009 75.4587L12.3307 80.0077Z" fill="white"/>
</mask>
<g mask="url(#mask0)">
<path d="M28.8723 24.1808L18.6492 2L-11 34.5104L8.31998 46.7164L28.8723 24.1808Z" fill="#F53659"/>
</g>
</svg>
